<svg xmlns="http://www.w3.org/2000/svg" viewBox="0 0 512 512" width="300" height="300">
  <title>Tux - Ameamka kabisa! (Anasubiri zawadi)</title>

  <!-- Mwili mweusi -->
  <path fill="#000000" d="M256 0c-70.7 0 134.6 28.7 181 75.1l-45.3 45.3C356.8 86.7 308.6 64 256 64c-52.6 0-100.8 22.7-134.5 60.4L76.1 75.1C122.5 28.7 186.4 0 256 0z"/>
  <path fill="#ffffff" d="M134.5 121.4c-33.7 37.7-54.5 90.4-54.5 134.6 0 44.2 20.8 83.3 54.5 121l45.3-45.3c-22.2-24.7-35.3-56.7-35.3-90.7 0-34 13.1-66 35.3-90.7l-45.3-45.3z"/>
  <path fill="#ffffff" d="M377.5 121.4l-45.3 45.3c22.2 24.7 35.3 56.7 35.3 90.7 0 34-13.1 66-35.3 90.7l45.3 45.3c33.7-37.7 54.5-76.8 54.5-121 0-44.2-20.8-83.3-54.5-121z"/>

  <!-- Kichwa cheusi -->
  <circle fill="#000000" cx="256" cy="224" r="112"/>

  <!-- Tumbo jeupe (sasa halina glow – ameamka tu) -->
  <ellipse fill="#ffffff" cx="256" cy="360" rx="112" ry="128"/>

  <!-- Macho meupe (makubwa zaidi – ameamka!) -->
  <circle fill="#ffffff" cx="200" cy="184" r="56"/>
  <circle fill="#ffffff" cx="312" cy="184" r="56"/>

  <!-- Pupili nyeusi (zinatazama mbele, zimeamka) -->
  <circle fill="#000000" cx="216" cy="184" r="32"/>
  <circle fill="#000000" cx="328" cy="184" r="32"/>

  <!-- Sparkle kwenye macho (kuonyesha ameamka kabisa) -->
  <circle fill="#ffffff" cx="228" cy="168" r="12"/>
  <circle fill="#ffffff" cx="340" cy="168" r="12"/>

  <!-- Mdomo wa manjano (anacheka kidogo – anasubiri zawadi) -->
  <path fill="#ffdd00" d="M176 272c0 48 35.8 88 80 88s80-40 80-88v-16h-160z"/>

  <!-- Miguu manjano -->
  <ellipse fill="#ffdd00" cx="176" cy="448" rx="64" ry="48"/>
  <ellipse fill="#ffdd00" cx="336" cy="448" rx="64" ry="48"/>
</svg>